<svg version="1.0" xmlns="http://www.w3.org/2000/svg" width="489.333" height="489.333" viewBox="0 0 367 367"><path d="M197.5 16.8c-.2.2-4.8.5-10.2.7-6.4.2-11.2.8-13.8 1.9-2.2 1-4.2 1.7-4.5 1.8-3 .4-15.7 5.6-17.7 7.2-1 .8-4.5 3.6-7.8 6.2s-6.6 5.6-7.4 6.7c-.8 1.1-3.3 4-5.7 6.6-2.4 2.5-4.6 5.8-4.9 7.3-.4 1.5-1.3 3.2-2.1 3.9-.8.6-1.4 1.9-1.4 2.8 0 1-.7 2.6-1.5 3.7-1.4 1.8-1.5 1.8-4.7-1.6-1.8-1.9-5.3-4.9-7.8-6.5-2.4-1.7-5.2-3.7-6-4.5-.9-.8-3.2-2.9-5.1-4.6-1.9-1.7-5.2-5.3-7.4-7.9-5.9-7.1-7.4-8.4-13.5-11.2l-5.5-2.5-3.5 2c-1.9 1.1-4.3 3.4-5.3 5.1-1.6 2.6-2.1 5.2-2.8 14.6-.3 3.2 1.2 15.6 2.1 18 .6 1.5.9 3 .6 3.2-.2.3.1 1.9.8 3.6 1.7 4.2.7 13.4-1.4 12.9-6.1-1.5-22 .7-22 2.9 0 .5-.7.9-1.5.9s-1.5.3-1.5.7c0 .5-2.3 2.3-5 4.2-15.4 10.5-22.7 27.3-15.2 35 1.5 1.5 3.7 3.1 5 3.5 1.2.4 2.2 1.1 2.2 1.5 0 .3.8.7 1.8.8.9.1 2.6.4 3.7.6 1.1.3 2.3.6 2.7.6 1.2.1-2.5 4.1-3.7 4.1-1.4 0-7.4 7.9-8.1 10.7-.5 1.7.1 2.9 1.7 4.2 4 3.3 11.9 7.3 15.2 7.7 8.6 1.2 10.7 1.7 10.7 2.5 0 1 15.3.5 17-.6 1.5-.9 1.3-.3-2.5 8.9-3.7 8.9-7.9 24.4-9.1 33.6-1 7.4-1 24-.1 32 4.7 38.9 28.2 75.1 62.2 95.6 6.4 3.8 16.8 8.7 22 10.3 2.2.7 5.4 1.9 7 2.6 10.5 4.7 41.7 6.7 58.3 3.9 12.4-2.2 35.9-10.3 40.3-14.1.8-.7 1.9-1.3 2.3-1.3 2 0 19.3-12.9 25.9-19.3 19.3-18.8 31.7-41.2 37.4-67.7 2.5-11.7 2.5-40-.1-51.5-3.3-15.4-10.8-33.5-18.5-44.9-2.5-3.8-3.5-7-3.1-10.6 0-.8.2-4.1.4-7.2.2-3.6.9-6.5 1.9-7.6 2.3-2.5 1.4-6.2-2.3-9.2-1.7-1.4-3-3.3-3-4.2 0-1-.8-2.2-1.9-2.7-1.9-1.1-3.6-5.1-2.1-5.1.8 0 2.1-2.7 1.9-4 0-.3.4-1.8 1-3.3 1.5-3.8-1-12.5-4.7-16.3-1.4-1.6-2.7-4.3-2.8-5.9-.6-6.7-1.3-10.6-2.2-11.8-.5-.7-1.2-2.4-1.6-3.9-.4-1.7-1.8-3.4-3.6-4.3-1.7-.9-2.8-2.1-2.4-2.6.3-.6-.3-1.7-1.5-2.5s-2.1-2.5-2.1-3.7c-.1-2.1-7.4-8.7-9.6-8.7-.5 0-2.7-1.7-5-3.8-8.2-7.6-10.4-9.2-12.5-9.2-1.1 0-3-.5-4.2-1.2-1.2-.6-3.5-1.3-5.2-1.4-1.6-.1-3.5-.3-4.1-.3-.6-.1-1.6-1.2-2.3-2.5-.7-1.3-2.9-2.8-5-3.5-3.6-1.1-14.8-2-15.6-1.3zM22.7 58.8C19 62.9 19 73 22.7 73c3.6 0 5.3-2 5.3-6.5 0-4.7-1.4-9.5-2.8-9.5-.5 0-1.6.8-2.5 1.8zM34.3 62.9c-.7 1-.9 2.2-.6 2.5 1.2 1.2 4.1.6 4.7-1 1.3-3.4-2.1-4.7-4.1-1.5zM358.7 62.1c-3.9 2.2-.9 6.7 5.6 8.3 2.6.6 2.7.5 2.7-3.9 0-2.5-.3-4.6-.7-4.6-4.3-.7-6.1-.6-7.6.2zM364.3 122.7c-2.4 2.4-2.2 5.3.3 5.3 1.8 0 2.7-2.1 2.2-5.2l-.3-2.3-2.2 2.2z"/></svg>