<?xml version="1.0" standalone="no"?>
<!DOCTYPE svg PUBLIC "-//W3C//DTD SVG 20010904//EN"
 "http://www.w3.org/TR/2001/REC-SVG-20010904/DTD/svg10.dtd">
<svg version="1.0" xmlns="http://www.w3.org/2000/svg"
 width="367.000000pt" height="367.000000pt" viewBox="0 0 367.000000 367.000000"
 preserveAspectRatio="xMidYMid meet">
<metadata>
Created by potrace 1.14, written by Peter Selinger 2001-2017
</metadata>
<g transform="translate(0.000000,367.000000) scale(0.100000,-0.100000)"
fill="#000000" stroke="none">
<path d="M1975 3502 c-2 -2 -48 -5 -102 -7 -64 -2 -112 -8 -138 -19 -22 -10
-42 -17 -45 -18 -30 -4 -157 -56 -177 -72 -10 -8 -45 -36 -78 -62 -33 -26 -66
-56 -74 -67 -8 -11 -33 -40 -57 -66 -24 -25 -46 -58 -49 -73 -4 -15 -13 -32
-21 -39 -8 -6 -14 -19 -14 -28 0 -10 -7 -26 -15 -37 -14 -18 -15 -18 -47 16
-18 19 -53 49 -78 65 -24 17 -52 37 -60 45 -9 8 -32 29 -51 46 -19 17 -52 53
-74 79 -59 71 -74 84 -135 112 l-55 25 -35 -20 c-19 -11 -43 -34 -53 -51 -16
-26 -21 -52 -28 -146 -3 -32 12 -156 21 -180 6 -15 9 -30 6 -32 -2 -3 1 -19 8
-36 17 -42 7 -134 -14 -129 -61 15 -220 -7 -220 -29 0 -5 -7 -9 -15 -9 -8 0
-15 -3 -15 -7 0 -5 -23 -23 -50 -42 -154 -105 -227 -273 -152 -350 15 -15 37
-31 50 -35 12 -4 22 -11 22 -15 0 -3 8 -7 18 -8 9 -1 26 -4 37 -6 11 -3 23 -6
27 -6 12 -1 -25 -41 -37 -41 -14 0 -74 -79 -81 -107 -5 -17 1 -29 17 -42 40
-33 119 -73 152 -77 86 -12 107 -17 107 -25 0 -10 153 -5 170 6 15 9 13 3 -25
-89 -37 -89 -79 -244 -91 -336 -10 -74 -10 -240 -1 -320 47 -389 282 -751 622
-956 64 -38 168 -87 220 -103 22 -7 54 -19 70 -26 105 -47 417 -67 583 -39
124 22 359 103 403 141 8 7 19 13 23 13 20 0 193 129 259 193 193 188 317 412
374 677 25 117 25 400 -1 515 -33 154 -108 335 -185 449 -25 38 -35 70 -31
106 0 8 2 41 4 72 2 36 9 65 19 76 23 25 14 62 -23 92 -17 14 -30 33 -30 42 0
10 -8 22 -19 27 -19 11 -36 51 -21 51 8 0 21 27 19 40 0 3 4 18 10 33 15 38
-10 125 -47 163 -14 16 -27 43 -28 59 -6 67 -13 106 -22 118 -5 7 -12 24 -16
39 -4 17 -18 34 -36 43 -17 9 -28 21 -24 26 3 6 -3 17 -15 25 -12 8 -21 25
-21 37 -1 21 -74 87 -96 87 -5 0 -27 17 -50 38 -82 76 -104 92 -125 92 -11 0
-30 5 -42 12 -12 6 -35 13 -52 14 -16 1 -35 3 -41 3 -6 1 -16 12 -23 25 -7 13
-29 28 -50 35 -36 11 -148 20 -156 13z"/>
<path d="M227 3082 c-37 -41 -37 -142 0 -142 36 0 53 20 53 65 0 47 -14 95
-28 95 -5 0 -16 -8 -25 -18z"/>
<path d="M343 3041 c-7 -10 -9 -22 -6 -25 12 -12 41 -6 47 10 13 34 -21 47
-41 15z"/>
<path d="M3587 3049 c-39 -22 -9 -67 56 -83 26 -6 27 -5 27 39 0 25 -3 46 -7
46 -43 7 -61 6 -76 -2z"/>
<path d="M3643 2443 c-24 -24 -22 -53 3 -53 18 0 27 21 22 52 l-3 23 -22 -22z"/>
</g>
</svg>
